<?xml version="1.0" standalone="no"?>
<!DOCTYPE svg PUBLIC "-//W3C//DTD SVG 20010904//EN"
 "http://www.w3.org/TR/2001/REC-SVG-20010904/DTD/svg10.dtd">
<svg version="1.0" xmlns="http://www.w3.org/2000/svg"
 width="440.000000pt" height="440.000000pt" viewBox="0 0 440.000000 440.000000"
 preserveAspectRatio="xMidYMid meet">
<metadata>
Created by potrace 1.11, written by Peter Selinger 2001-2013
</metadata>
<g transform="translate(0.000000,440.000000) scale(0.100000,-0.100000)"
fill="#000000" stroke="none">
<path d="M1980 4093 c-103 -13 -290 -57 -393 -93 -161 -55 -443 -199 -455
-231 -2 -5 -8 -9 -13 -9 -10 0 -24 -10 -60 -42 -10 -10 -23 -18 -27 -18 -5 0
-67 -58 -138 -128 -170 -169 -194 -197 -281 -331 -66 -100 -189 -347 -192
-384 0 -1 -12 -36 -26 -77 -14 -41 -37 -129 -52 -195 -23 -107 -26 -145 -29
-360 -3 -222 -1 -250 22 -370 14 -71 45 -189 69 -261 42 -126 147 -355 166
-362 5 -2 7 -8 3 -13 -3 -5 0 -9 5 -9 6 0 11 -7 11 -15 0 -8 5 -15 10 -15 6 0
10 -6 10 -13 0 -7 9 -23 20 -35 11 -12 20 -24 20 -26 0 -6 61 -88 86 -116 46
-52 245 -249 272 -270 19 -14 40 -31 47 -38 8 -6 18 -12 23 -12 6 0 12 -7 16
-15 3 -8 12 -15 20 -15 8 0 16 -3 18 -8 4 -11 111 -80 150 -98 18 -8 40 -18
48 -23 111 -65 320 -140 500 -179 116 -25 142 -26 375 -27 223 0 263 3 365 23
204 42 412 118 583 214 39 22 74 44 77 47 3 3 17 12 33 20 15 8 27 18 27 23 0
4 5 8 10 8 43 0 439 384 440 426 0 7 7 14 15 18 8 3 15 12 15 20 0 8 4 16 9
18 15 5 79 113 136 226 68 138 128 311 163 472 25 117 27 141 27 380 0 239 -2
263 -27 380 -15 69 -46 179 -68 245 -41 120 -175 395 -191 395 -5 0 -9 6 -9
13 0 11 -41 69 -117 166 -37 47 -238 251 -248 251 -4 0 -16 11 -27 25 -11 14
-25 25 -33 25 -7 0 -15 7 -19 15 -3 8 -12 15 -21 15 -8 0 -15 4 -15 9 0 14
-149 105 -271 166 -143 71 -308 128 -464 161 -105 23 -148 26 -350 29 -126 2
-246 1 -265 -2z"/>
</g>
</svg>
